<?xml version="1.0"?>
<svg xmlns="http://www.w3.org/2000/svg" viewBox="0 0 24 24" enable-background="new 0 0 24 24">
    <path style="text-indent:0;text-align:start;line-height:normal;text-transform:none;block-progression:tb;-inkscape-font-specification:Bitstream Vera Sans" d="M 5.5625 0 C 4.1374649 0 2.7065366 0.54346338 1.625 1.625 C -0.53807323 3.7880732 -0.53807323 7.3369268 1.625 9.5 L 5.28125 13.15625 A 1.0054782 1.0054782 0 1 0 6.71875 11.75 L 3.03125 8.0625 C 1.6323232 6.6635732 1.6323232 4.4301768 3.03125 3.03125 C 4.4301768 1.6323232 6.6635732 1.6323232 8.0625 3.03125 L 12.96875 7.9375 C 14.367677 9.3364268 14.367677 11.569823 12.96875 12.96875 C 12.806158 13.131342 12.619696 13.250669 12.4375 13.375 A 1.001098 1.001098 0 0 0 13.5625 15.03125 C 13.846304 14.837581 14.123592 14.626408 14.375 14.375 C 16.538073 12.211927 16.538073 8.6630732 14.375 6.5 L 9.5 1.625 C 8.4184634 0.54346338 6.9875351 0 5.5625 0 z M 10.78125 8.875 A 1.0001 1.0001 0 0 0 10.65625 8.90625 A 1.0001 1.0001 0 0 0 10.25 9.09375 C 10.038121 9.2520506 9.8185488 9.4302263 9.625 9.625 C 7.4619268 11.788073 7.4619268 15.336927 9.625 17.5 L 14.5 22.375 C 16.663073 24.538073 20.211927 24.538073 22.375 22.375 C 24.538073 20.211927 24.538073 16.663073 22.375 14.5 L 18.71875 10.875 A 1.0001 1.0001 0 1 0 17.3125 12.28125 L 20.96875 15.9375 C 22.367677 17.336427 22.367677 19.569823 20.96875 20.96875 C 19.569823 22.367677 17.336427 22.367677 15.9375 20.96875 L 11.03125 16.0625 C 9.6323232 14.663573 9.6323232 12.430177 11.03125 11.03125 C 11.153701 10.908024 11.301379 10.820449 11.4375 10.71875 A 1.0001 1.0001 0 0 0 10.78125 8.875 z" overflow="visible" enable-background="accumulate" font-family="Bitstream Vera Sans"/>
</svg>
